<svg width="284" height="14" viewBox="0 0 284 14" fill="none" xmlns="http://www.w3.org/2000/svg">
<path d="M8.60645 7.75977C8.50618 8.82161 8.11426 9.65104 7.43066 10.248C6.74707 10.8405 5.83789 11.1367 4.70312 11.1367C3.91016 11.1367 3.21061 10.9499 2.60449 10.5762C2.00293 10.1979 1.53809 9.66243 1.20996 8.96973C0.881836 8.27702 0.710938 7.47266 0.697266 6.55664V5.62695C0.697266 4.68815 0.863607 3.861 1.19629 3.14551C1.52897 2.43001 2.00521 1.87858 2.625 1.49121C3.24935 1.10384 3.9694 0.910156 4.78516 0.910156C5.88346 0.910156 6.76758 1.20866 7.4375 1.80566C8.10742 2.40267 8.49707 3.24577 8.60645 4.33496H6.88379C6.80176 3.61947 6.59212 3.10449 6.25488 2.79004C5.9222 2.47103 5.43229 2.31152 4.78516 2.31152C4.0332 2.31152 3.45443 2.58724 3.04883 3.13867C2.64779 3.68555 2.44271 4.48991 2.43359 5.55176V6.43359C2.43359 7.50911 2.625 8.32943 3.00781 8.89453C3.39518 9.45964 3.96029 9.74219 4.70312 9.74219C5.38216 9.74219 5.89258 9.58952 6.23438 9.28418C6.57617 8.97884 6.79264 8.4707 6.88379 7.75977H8.60645ZM9.68652 7.2334C9.68652 6.50879 9.83008 5.8571 10.1172 5.27832C10.4043 4.69499 10.8076 4.24837 11.3271 3.93848C11.8467 3.62402 12.4437 3.4668 13.1182 3.4668C14.1162 3.4668 14.9251 3.78809 15.5449 4.43066C16.1693 5.07324 16.5065 5.92546 16.5566 6.9873L16.5635 7.37695C16.5635 8.10612 16.4222 8.75781 16.1396 9.33203C15.8617 9.90625 15.4606 10.3506 14.9365 10.665C14.417 10.9795 13.8154 11.1367 13.1318 11.1367C12.0882 11.1367 11.252 10.7904 10.623 10.0977C9.9987 9.40039 9.68652 8.47298 9.68652 7.31543V7.2334ZM11.3477 7.37695C11.3477 8.13802 11.5049 8.73503 11.8193 9.16797C12.1338 9.59635 12.5713 9.81055 13.1318 9.81055C13.6924 9.81055 14.1276 9.5918 14.4375 9.1543C14.752 8.7168 14.9092 8.0765 14.9092 7.2334C14.9092 6.486 14.7474 5.89355 14.4238 5.45605C14.1048 5.01855 13.6696 4.7998 13.1182 4.7998C12.5758 4.7998 12.1452 5.01628 11.8262 5.44922C11.5072 5.8776 11.3477 6.52018 11.3477 7.37695ZM24.4453 7.37695C24.4453 8.52083 24.1855 9.43457 23.666 10.1182C23.1465 10.7972 22.4492 11.1367 21.5742 11.1367C20.763 11.1367 20.1136 10.8701 19.626 10.3369V13.8438H17.9648V3.60352H19.4961L19.5645 4.35547C20.0521 3.76302 20.7152 3.4668 21.5537 3.4668C22.4561 3.4668 23.1624 3.80404 23.6729 4.47852C24.1878 5.14844 24.4453 6.0804 24.4453 7.27441V7.37695ZM22.791 7.2334C22.791 6.49512 22.6429 5.90951 22.3467 5.47656C22.055 5.04362 21.6357 4.82715 21.0889 4.82715C20.4098 4.82715 19.9222 5.10742 19.626 5.66797V8.94922C19.9268 9.52344 20.4189 9.81055 21.1025 9.81055C21.6312 9.81055 22.0436 9.59863 22.3398 9.1748C22.6406 8.74642 22.791 8.09928 22.791 7.2334ZM28.3623 8.62109L29.8662 3.60352H31.6367L28.6973 12.1211C28.2461 13.3652 27.4805 13.9873 26.4004 13.9873C26.1589 13.9873 25.8923 13.9463 25.6006 13.8643V12.5791L25.915 12.5996C26.3343 12.5996 26.6488 12.5221 26.8584 12.3672C27.0726 12.2168 27.2412 11.9616 27.3643 11.6016L27.6035 10.9658L25.0059 3.60352H26.7969L28.3623 8.62109ZM36.4697 5.12109C36.251 5.08464 36.0254 5.06641 35.793 5.06641C35.0319 5.06641 34.5192 5.35807 34.2549 5.94141V11H32.5938V3.60352H34.1797L34.2207 4.43066C34.6217 3.78809 35.1777 3.4668 35.8887 3.4668C36.1257 3.4668 36.3216 3.4987 36.4766 3.5625L36.4697 5.12109ZM39.2861 11H37.625V3.60352H39.2861V11ZM37.5225 1.68262C37.5225 1.42741 37.6022 1.21549 37.7617 1.04688C37.9258 0.878255 38.1582 0.793945 38.459 0.793945C38.7598 0.793945 38.9922 0.878255 39.1562 1.04688C39.3203 1.21549 39.4023 1.42741 39.4023 1.68262C39.4023 1.93327 39.3203 2.1429 39.1562 2.31152C38.9922 2.47559 38.7598 2.55762 38.459 2.55762C38.1582 2.55762 37.9258 2.47559 37.7617 2.31152C37.6022 2.1429 37.5225 1.93327 37.5225 1.68262ZM40.8105 7.24707C40.8105 6.09863 41.0794 5.18262 41.6172 4.49902C42.1595 3.81087 42.8773 3.4668 43.7705 3.4668C44.6136 3.4668 45.2767 3.76074 45.7598 4.34863L45.835 3.60352H47.332V10.7744C47.332 11.7451 47.029 12.5107 46.4229 13.0713C45.8213 13.6318 45.0078 13.9121 43.9824 13.9121C43.4401 13.9121 42.9092 13.7982 42.3896 13.5703C41.8747 13.347 41.4827 13.0531 41.2139 12.6885L42 11.6904C42.5104 12.2965 43.1393 12.5996 43.8867 12.5996C44.4382 12.5996 44.8734 12.4492 45.1924 12.1484C45.5114 11.8522 45.6709 11.4147 45.6709 10.8359V10.3369C45.1924 10.8701 44.5544 11.1367 43.7568 11.1367C42.891 11.1367 42.1823 10.7926 41.6309 10.1045C41.084 9.41634 40.8105 8.46387 40.8105 7.24707ZM42.4648 7.39062C42.4648 8.13346 42.6152 8.71908 42.916 9.14746C43.2214 9.57129 43.6429 9.7832 44.1807 9.7832C44.8506 9.7832 45.3473 9.49609 45.6709 8.92188V5.66797C45.3564 5.10742 44.8643 4.82715 44.1943 4.82715C43.6475 4.82715 43.2214 5.04362 42.916 5.47656C42.6152 5.90951 42.4648 6.54753 42.4648 7.39062ZM50.6816 4.41016C51.224 3.78125 51.9098 3.4668 52.7393 3.4668C54.3161 3.4668 55.1159 4.36686 55.1387 6.16699V11H53.4775V6.22852C53.4775 5.7181 53.3659 5.35807 53.1426 5.14844C52.9238 4.93424 52.6003 4.82715 52.1719 4.82715C51.5065 4.82715 51.0098 5.12337 50.6816 5.71582V11H49.0205V0.5H50.6816V4.41016ZM58.9053 1.80566V3.60352H60.2109V4.83398H58.9053V8.96289C58.9053 9.24544 58.96 9.45052 59.0693 9.57812C59.1833 9.70117 59.3838 9.7627 59.6709 9.7627C59.8623 9.7627 60.056 9.73991 60.252 9.69434V10.9795C59.8737 11.0843 59.5091 11.1367 59.1582 11.1367C57.8822 11.1367 57.2441 10.4326 57.2441 9.02441V4.83398H56.0273V3.60352H57.2441V1.80566H58.9053ZM71.7637 6.92578C71.7637 7.61849 71.5632 8.14941 71.1621 8.51855C70.7656 8.8877 70.2028 9.07227 69.4736 9.07227C68.7445 9.07227 68.1634 8.83073 67.7305 8.34766C67.3021 7.86003 67.0879 7.20605 67.0879 6.38574V5.61328C67.0879 4.82031 67.3044 4.18229 67.7373 3.69922C68.1748 3.21159 68.7536 2.96777 69.4736 2.96777C70.2165 2.96777 70.7839 3.1569 71.1758 3.53516C71.5723 3.90885 71.7705 4.43522 71.7705 5.11426H70.7041C70.7041 4.67676 70.5993 4.36458 70.3896 4.17773C70.18 3.98633 69.8747 3.89062 69.4736 3.89062C69.0544 3.89062 68.7262 4.04557 68.4893 4.35547C68.2568 4.66536 68.1406 5.08919 68.1406 5.62695V6.42676C68.1406 6.96452 68.2591 7.38607 68.4961 7.69141C68.7331 7.99674 69.0589 8.14941 69.4736 8.14941C69.8792 8.14941 70.1846 8.05827 70.3896 7.87598C70.5947 7.68913 70.6973 7.3724 70.6973 6.92578H71.7637ZM73.582 6.0166C73.582 5.26009 73.4111 4.55827 73.0693 3.91113C72.7275 3.25944 72.2445 2.73991 71.6201 2.35254C70.9958 1.96061 70.3122 1.76465 69.5693 1.76465C68.8447 1.76465 68.1702 1.9515 67.5459 2.3252C66.9261 2.69889 66.4385 3.21387 66.083 3.87012C65.7275 4.52637 65.5498 5.24186 65.5498 6.0166C65.5498 6.79134 65.7253 7.50684 66.0762 8.16309C66.4316 8.81934 66.9193 9.33887 67.5391 9.72168C68.1634 10.0999 68.8402 10.2891 69.5693 10.2891C70.2985 10.2891 70.9753 10.0954 71.5996 9.70801C72.2285 9.32064 72.7161 8.79883 73.0625 8.14258C73.4089 7.48633 73.582 6.77767 73.582 6.0166ZM64.7158 6.0166C64.7158 5.09603 64.9277 4.24154 65.3516 3.45312C65.7799 2.66471 66.3701 2.04492 67.1221 1.59375C67.8786 1.13802 68.6943 0.910156 69.5693 0.910156C70.4443 0.910156 71.2578 1.13802 72.0098 1.59375C72.7617 2.04492 73.3496 2.66471 73.7734 3.45312C74.2018 4.24154 74.416 5.09603 74.416 6.0166C74.416 6.93717 74.2018 7.79167 73.7734 8.58008C73.3496 9.36849 72.764 9.99284 72.0166 10.4531C71.2692 10.9089 70.4535 11.1367 69.5693 11.1367C68.6898 11.1367 67.874 10.9089 67.1221 10.4531C66.3747 9.9974 65.7868 9.37533 65.3584 8.58691C64.93 7.7985 64.7158 6.94173 64.7158 6.0166ZM86.0098 11H79.3174V9.8584L82.6328 6.24219C83.1113 5.70898 83.4508 5.26465 83.6514 4.90918C83.8564 4.54915 83.959 4.18913 83.959 3.8291C83.959 3.35514 83.8245 2.97233 83.5557 2.68066C83.2913 2.389 82.9336 2.24316 82.4824 2.24316C81.9447 2.24316 81.5277 2.40723 81.2314 2.73535C80.9352 3.06348 80.7871 3.51237 80.7871 4.08203H79.126C79.126 3.47591 79.2627 2.93132 79.5361 2.44824C79.8141 1.96061 80.2083 1.58236 80.7188 1.31348C81.2337 1.0446 81.8262 0.910156 82.4961 0.910156C83.4622 0.910156 84.2233 1.15397 84.7793 1.6416C85.3398 2.12467 85.6201 2.7946 85.6201 3.65137C85.6201 4.14811 85.4788 4.66992 85.1963 5.2168C84.9183 5.75911 84.4603 6.37663 83.8223 7.06934L81.3887 9.67383H86.0098V11ZM93.7617 6.80957C93.7617 8.24056 93.4928 9.32064 92.9551 10.0498C92.4219 10.7744 91.6084 11.1367 90.5146 11.1367C89.4391 11.1367 88.6279 10.7835 88.0811 10.0771C87.5387 9.36621 87.2607 8.31576 87.2471 6.92578V5.20312C87.2471 3.77214 87.5137 2.69889 88.0469 1.9834C88.5846 1.2679 89.4027 0.910156 90.501 0.910156C91.5902 0.910156 92.4014 1.25879 92.9346 1.95605C93.4723 2.65332 93.748 3.69694 93.7617 5.08691V6.80957ZM92.1006 4.9502C92.1006 4.01595 91.973 3.33236 91.7178 2.89941C91.4626 2.46191 91.057 2.24316 90.501 2.24316C89.9587 2.24316 89.5599 2.45052 89.3047 2.86523C89.0495 3.27539 88.915 3.91797 88.9014 4.79297V7.04883C88.9014 7.97852 89.0312 8.67122 89.291 9.12695C89.5508 9.58268 89.9587 9.81055 90.5146 9.81055C91.0479 9.81055 91.4421 9.60091 91.6973 9.18164C91.9525 8.75781 92.0869 8.09701 92.1006 7.19922V4.9502ZM101.924 11H95.2314V9.8584L98.5469 6.24219C99.0254 5.70898 99.3649 5.26465 99.5654 4.90918C99.7705 4.54915 99.873 4.18913 99.873 3.8291C99.873 3.35514 99.7386 2.97233 99.4697 2.68066C99.2054 2.389 98.8477 2.24316 98.3965 2.24316C97.8587 2.24316 97.4417 2.40723 97.1455 2.73535C96.8493 3.06348 96.7012 3.51237 96.7012 4.08203H95.04C95.04 3.47591 95.1768 2.93132 95.4502 2.44824C95.7282 1.96061 96.1224 1.58236 96.6328 1.31348C97.1478 1.0446 97.7402 0.910156 98.4102 0.910156C99.3763 0.910156 100.137 1.15397 100.693 1.6416C101.254 2.12467 101.534 2.7946 101.534 3.65137C101.534 4.14811 101.393 4.66992 101.11 5.2168C100.832 5.75911 100.374 6.37663 99.7363 7.06934L97.3027 9.67383H101.924V11ZM107.687 11H106.032V3.00879L103.592 3.84277V2.44141L107.475 1.0127H107.687V11ZM121.68 2.44141H118.576V11H116.86V2.44141H113.784V1.04688H121.68V2.44141ZM130.293 2.44141H127.189V11H125.474V2.44141H122.397V1.04688H130.293V2.44141ZM133.526 1.80566V3.60352H134.832V4.83398H133.526V8.96289C133.526 9.24544 133.581 9.45052 133.69 9.57812C133.804 9.70117 134.005 9.7627 134.292 9.7627C134.483 9.7627 134.677 9.73991 134.873 9.69434V10.9795C134.495 11.0843 134.13 11.1367 133.779 11.1367C132.503 11.1367 131.865 10.4326 131.865 9.02441V4.83398H130.648V3.60352H131.865V1.80566H133.526ZM139.979 5.12109C139.761 5.08464 139.535 5.06641 139.303 5.06641C138.542 5.06641 138.029 5.35807 137.765 5.94141V11H136.104V3.60352H137.689L137.73 4.43066C138.132 3.78809 138.688 3.4668 139.398 3.4668C139.635 3.4668 139.831 3.4987 139.986 3.5625L139.979 5.12109ZM142.796 11H141.135V3.60352H142.796V11ZM141.032 1.68262C141.032 1.42741 141.112 1.21549 141.271 1.04688C141.436 0.878255 141.668 0.793945 141.969 0.793945C142.27 0.793945 142.502 0.878255 142.666 1.04688C142.83 1.21549 142.912 1.42741 142.912 1.68262C142.912 1.93327 142.83 2.1429 142.666 2.31152C142.502 2.47559 142.27 2.55762 141.969 2.55762C141.668 2.55762 141.436 2.47559 141.271 2.31152C141.112 2.1429 141.032 1.93327 141.032 1.68262ZM151.088 7.37695C151.088 8.52083 150.828 9.43457 150.309 10.1182C149.789 10.7972 149.092 11.1367 148.217 11.1367C147.406 11.1367 146.756 10.8701 146.269 10.3369V13.8438H144.607V3.60352H146.139L146.207 4.35547C146.695 3.76302 147.358 3.4668 148.196 3.4668C149.099 3.4668 149.805 3.80404 150.315 4.47852C150.83 5.14844 151.088 6.0804 151.088 7.27441V7.37695ZM149.434 7.2334C149.434 6.49512 149.285 5.90951 148.989 5.47656C148.698 5.04362 148.278 4.82715 147.731 4.82715C147.052 4.82715 146.565 5.10742 146.269 5.66797V8.94922C146.569 9.52344 147.062 9.81055 147.745 9.81055C148.274 9.81055 148.686 9.59863 148.982 9.1748C149.283 8.74642 149.434 8.09928 149.434 7.2334ZM156.646 8.99023C156.646 8.69401 156.522 8.46842 156.276 8.31348C156.035 8.15853 155.632 8.02181 155.066 7.90332C154.501 7.78483 154.03 7.63444 153.651 7.45215C152.822 7.05111 152.407 6.47005 152.407 5.70898C152.407 5.07096 152.676 4.53776 153.214 4.10938C153.752 3.68099 154.435 3.4668 155.265 3.4668C156.149 3.4668 156.862 3.68555 157.404 4.12305C157.951 4.56055 158.225 5.12793 158.225 5.8252H156.563C156.563 5.50618 156.445 5.24186 156.208 5.03223C155.971 4.81803 155.657 4.71094 155.265 4.71094C154.9 4.71094 154.602 4.79525 154.369 4.96387C154.141 5.13249 154.027 5.35807 154.027 5.64062C154.027 5.89583 154.134 6.09408 154.349 6.23535C154.563 6.37663 154.996 6.52018 155.647 6.66602C156.299 6.80729 156.81 6.97819 157.179 7.17871C157.552 7.37467 157.828 7.61165 158.006 7.88965C158.188 8.16764 158.279 8.50488 158.279 8.90137C158.279 9.56673 158.004 10.1068 157.452 10.5215C156.901 10.9316 156.178 11.1367 155.285 11.1367C154.679 11.1367 154.139 11.0273 153.665 10.8086C153.191 10.5898 152.822 10.2891 152.558 9.90625C152.293 9.52344 152.161 9.111 152.161 8.66895H153.774C153.797 9.06087 153.945 9.36393 154.219 9.57812C154.492 9.78776 154.854 9.89258 155.306 9.89258C155.743 9.89258 156.076 9.81055 156.304 9.64648C156.532 9.47786 156.646 9.25911 156.646 8.99023ZM160.768 9.25C161.077 9.25 161.317 9.33887 161.485 9.5166C161.654 9.68978 161.738 9.90853 161.738 10.1729C161.738 10.4326 161.654 10.6491 161.485 10.8223C161.317 10.9909 161.077 11.0752 160.768 11.0752C160.471 11.0752 160.237 10.9909 160.063 10.8223C159.89 10.6536 159.804 10.4372 159.804 10.1729C159.804 9.90853 159.888 9.68978 160.057 9.5166C160.225 9.33887 160.462 9.25 160.768 9.25ZM172.86 8.68262H169.005L168.198 11H166.4L170.16 1.04688H171.712L175.479 11H173.674L172.86 8.68262ZM169.49 7.28809H172.375L170.933 3.15918L169.49 7.28809ZM178.22 11H176.559V0.5H178.22V11ZM181.802 11H180.141V0.5H181.802V11ZM190.976 5.12109C190.757 5.08464 190.531 5.06641 190.299 5.06641C189.538 5.06641 189.025 5.35807 188.761 5.94141V11H187.1V3.60352H188.686L188.727 4.43066C189.128 3.78809 189.684 3.4668 190.395 3.4668C190.632 3.4668 190.827 3.4987 190.982 3.5625L190.976 5.12109ZM193.792 11H192.131V3.60352H193.792V11ZM192.028 1.68262C192.028 1.42741 192.108 1.21549 192.268 1.04688C192.432 0.878255 192.664 0.793945 192.965 0.793945C193.266 0.793945 193.498 0.878255 193.662 1.04688C193.826 1.21549 193.908 1.42741 193.908 1.68262C193.908 1.93327 193.826 2.1429 193.662 2.31152C193.498 2.47559 193.266 2.55762 192.965 2.55762C192.664 2.55762 192.432 2.47559 192.268 2.31152C192.108 2.1429 192.028 1.93327 192.028 1.68262ZM195.316 7.24707C195.316 6.09863 195.585 5.18262 196.123 4.49902C196.665 3.81087 197.383 3.4668 198.276 3.4668C199.119 3.4668 199.783 3.76074 200.266 4.34863L200.341 3.60352H201.838V10.7744C201.838 11.7451 201.535 12.5107 200.929 13.0713C200.327 13.6318 199.514 13.9121 198.488 13.9121C197.946 13.9121 197.415 13.7982 196.896 13.5703C196.381 13.347 195.989 13.0531 195.72 12.6885L196.506 11.6904C197.016 12.2965 197.645 12.5996 198.393 12.5996C198.944 12.5996 199.379 12.4492 199.698 12.1484C200.017 11.8522 200.177 11.4147 200.177 10.8359V10.3369C199.698 10.8701 199.06 11.1367 198.263 11.1367C197.397 11.1367 196.688 10.7926 196.137 10.1045C195.59 9.41634 195.316 8.46387 195.316 7.24707ZM196.971 7.39062C196.971 8.13346 197.121 8.71908 197.422 9.14746C197.727 9.57129 198.149 9.7832 198.687 9.7832C199.356 9.7832 199.853 9.49609 200.177 8.92188V5.66797C199.862 5.10742 199.37 4.82715 198.7 4.82715C198.153 4.82715 197.727 5.04362 197.422 5.47656C197.121 5.90951 196.971 6.54753 196.971 7.39062ZM205.188 4.41016C205.73 3.78125 206.416 3.4668 207.245 3.4668C208.822 3.4668 209.622 4.36686 209.645 6.16699V11H207.983V6.22852C207.983 5.7181 207.872 5.35807 207.648 5.14844C207.43 4.93424 207.106 4.82715 206.678 4.82715C206.012 4.82715 205.516 5.12337 205.188 5.71582V11H203.526V0.5H205.188V4.41016ZM213.411 1.80566V3.60352H214.717V4.83398H213.411V8.96289C213.411 9.24544 213.466 9.45052 213.575 9.57812C213.689 9.70117 213.89 9.7627 214.177 9.7627C214.368 9.7627 214.562 9.73991 214.758 9.69434V10.9795C214.38 11.0843 214.015 11.1367 213.664 11.1367C212.388 11.1367 211.75 10.4326 211.75 9.02441V4.83398H210.533V3.60352H211.75V1.80566H213.411ZM220.138 8.99023C220.138 8.69401 220.015 8.46842 219.769 8.31348C219.527 8.15853 219.124 8.02181 218.559 7.90332C217.993 7.78483 217.522 7.63444 217.144 7.45215C216.314 7.05111 215.899 6.47005 215.899 5.70898C215.899 5.07096 216.168 4.53776 216.706 4.10938C217.244 3.68099 217.927 3.4668 218.757 3.4668C219.641 3.4668 220.354 3.68555 220.896 4.12305C221.443 4.56055 221.717 5.12793 221.717 5.8252H220.056C220.056 5.50618 219.937 5.24186 219.7 5.03223C219.463 4.81803 219.149 4.71094 218.757 4.71094C218.392 4.71094 218.094 4.79525 217.861 4.96387C217.633 5.13249 217.52 5.35807 217.52 5.64062C217.52 5.89583 217.627 6.09408 217.841 6.23535C218.055 6.37663 218.488 6.52018 219.14 6.66602C219.791 6.80729 220.302 6.97819 220.671 7.17871C221.045 7.37467 221.32 7.61165 221.498 7.88965C221.68 8.16764 221.771 8.50488 221.771 8.90137C221.771 9.56673 221.496 10.1068 220.944 10.5215C220.393 10.9316 219.671 11.1367 218.777 11.1367C218.171 11.1367 217.631 11.0273 217.157 10.8086C216.683 10.5898 216.314 10.2891 216.05 9.90625C215.785 9.52344 215.653 9.111 215.653 8.66895H217.267C217.289 9.06087 217.438 9.36393 217.711 9.57812C217.984 9.78776 218.347 9.89258 218.798 9.89258C219.235 9.89258 219.568 9.81055 219.796 9.64648C220.024 9.47786 220.138 9.25911 220.138 8.99023ZM230.583 5.12109C230.364 5.08464 230.139 5.06641 229.906 5.06641C229.145 5.06641 228.632 5.35807 228.368 5.94141V11H226.707V3.60352H228.293L228.334 4.43066C228.735 3.78809 229.291 3.4668 230.002 3.4668C230.239 3.4668 230.435 3.4987 230.59 3.5625L230.583 5.12109ZM234.753 11.1367C233.7 11.1367 232.846 10.8063 232.189 10.1455C231.538 9.48014 231.212 8.59603 231.212 7.49316V7.28809C231.212 6.5498 231.353 5.89128 231.636 5.3125C231.923 4.72917 232.324 4.27572 232.839 3.95215C233.354 3.62858 233.928 3.4668 234.562 3.4668C235.569 3.4668 236.346 3.78809 236.893 4.43066C237.444 5.07324 237.72 5.98242 237.72 7.1582V7.82812H232.887C232.937 8.4388 233.14 8.92188 233.495 9.27734C233.855 9.63281 234.306 9.81055 234.849 9.81055C235.61 9.81055 236.229 9.50293 236.708 8.8877L237.604 9.74219C237.307 10.1842 236.911 10.5283 236.414 10.7744C235.922 11.016 235.368 11.1367 234.753 11.1367ZM234.555 4.7998C234.099 4.7998 233.73 4.95931 233.447 5.27832C233.169 5.59733 232.992 6.04167 232.914 6.61133H236.079V6.48828C236.043 5.93229 235.895 5.51302 235.635 5.23047C235.375 4.94336 235.015 4.7998 234.555 4.7998ZM243.161 8.99023C243.161 8.69401 243.038 8.46842 242.792 8.31348C242.55 8.15853 242.147 8.02181 241.582 7.90332C241.017 7.78483 240.545 7.63444 240.167 7.45215C239.338 7.05111 238.923 6.47005 238.923 5.70898C238.923 5.07096 239.192 4.53776 239.729 4.10938C240.267 3.68099 240.951 3.4668 241.78 3.4668C242.664 3.4668 243.378 3.68555 243.92 4.12305C244.467 4.56055 244.74 5.12793 244.74 5.8252H243.079C243.079 5.50618 242.961 5.24186 242.724 5.03223C242.487 4.81803 242.172 4.71094 241.78 4.71094C241.416 4.71094 241.117 4.79525 240.885 4.96387C240.657 5.13249 240.543 5.35807 240.543 5.64062C240.543 5.89583 240.65 6.09408 240.864 6.23535C241.078 6.37663 241.511 6.52018 242.163 6.66602C242.815 6.80729 243.325 6.97819 243.694 7.17871C244.068 7.37467 244.344 7.61165 244.521 7.88965C244.704 8.16764 244.795 8.50488 244.795 8.90137C244.795 9.56673 244.519 10.1068 243.968 10.5215C243.416 10.9316 242.694 11.1367 241.801 11.1367C241.195 11.1367 240.655 11.0273 240.181 10.8086C239.707 10.5898 239.338 10.2891 239.073 9.90625C238.809 9.52344 238.677 9.111 238.677 8.66895H240.29C240.313 9.06087 240.461 9.36393 240.734 9.57812C241.008 9.78776 241.37 9.89258 241.821 9.89258C242.259 9.89258 242.591 9.81055 242.819 9.64648C243.047 9.47786 243.161 9.25911 243.161 8.99023ZM249.505 11.1367C248.452 11.1367 247.598 10.8063 246.941 10.1455C246.29 9.48014 245.964 8.59603 245.964 7.49316V7.28809C245.964 6.5498 246.105 5.89128 246.388 5.3125C246.675 4.72917 247.076 4.27572 247.591 3.95215C248.106 3.62858 248.68 3.4668 249.313 3.4668C250.321 3.4668 251.098 3.78809 251.645 4.43066C252.196 5.07324 252.472 5.98242 252.472 7.1582V7.82812H247.639C247.689 8.4388 247.892 8.92188 248.247 9.27734C248.607 9.63281 249.058 9.81055 249.601 9.81055C250.362 9.81055 250.981 9.50293 251.46 8.8877L252.355 9.74219C252.059 10.1842 251.663 10.5283 251.166 10.7744C250.674 11.016 250.12 11.1367 249.505 11.1367ZM249.307 4.7998C248.851 4.7998 248.482 4.95931 248.199 5.27832C247.921 5.59733 247.743 6.04167 247.666 6.61133H250.831V6.48828C250.795 5.93229 250.646 5.51302 250.387 5.23047C250.127 4.94336 249.767 4.7998 249.307 4.7998ZM257.64 5.12109C257.421 5.08464 257.195 5.06641 256.963 5.06641C256.202 5.06641 255.689 5.35807 255.425 5.94141V11H253.764V3.60352H255.35L255.391 4.43066C255.792 3.78809 256.348 3.4668 257.059 3.4668C257.296 3.4668 257.492 3.4987 257.646 3.5625L257.64 5.12109ZM261.42 8.89453L262.985 3.60352H264.701L262.138 11H260.695L258.111 3.60352H259.834L261.42 8.89453ZM268.905 11.1367C267.853 11.1367 266.998 10.8063 266.342 10.1455C265.69 9.48014 265.364 8.59603 265.364 7.49316V7.28809C265.364 6.5498 265.506 5.89128 265.788 5.3125C266.075 4.72917 266.476 4.27572 266.991 3.95215C267.506 3.62858 268.08 3.4668 268.714 3.4668C269.721 3.4668 270.498 3.78809 271.045 4.43066C271.596 5.07324 271.872 5.98242 271.872 7.1582V7.82812H267.039C267.089 8.4388 267.292 8.92188 267.647 9.27734C268.007 9.63281 268.459 9.81055 269.001 9.81055C269.762 9.81055 270.382 9.50293 270.86 8.8877L271.756 9.74219C271.46 10.1842 271.063 10.5283 270.566 10.7744C270.074 11.016 269.521 11.1367 268.905 11.1367ZM268.707 4.7998C268.251 4.7998 267.882 4.95931 267.6 5.27832C267.322 5.59733 267.144 6.04167 267.066 6.61133H270.231V6.48828C270.195 5.93229 270.047 5.51302 269.787 5.23047C269.527 4.94336 269.167 4.7998 268.707 4.7998ZM272.856 7.24707C272.856 6.10775 273.121 5.19401 273.649 4.50586C274.178 3.81315 274.887 3.4668 275.775 3.4668C276.559 3.4668 277.193 3.74023 277.676 4.28711V0.5H279.337V11H277.833L277.751 10.2344C277.254 10.8359 276.591 11.1367 275.762 11.1367C274.896 11.1367 274.194 10.7881 273.656 10.0908C273.123 9.39355 272.856 8.44564 272.856 7.24707ZM274.518 7.39062C274.518 8.14258 274.661 8.73047 274.948 9.1543C275.24 9.57357 275.652 9.7832 276.186 9.7832C276.865 9.7832 277.361 9.48014 277.676 8.87402V5.71582C277.37 5.12337 276.878 4.82715 276.199 4.82715C275.661 4.82715 275.247 5.04134 274.955 5.46973C274.663 5.89355 274.518 6.53385 274.518 7.39062ZM282.105 9.25C282.415 9.25 282.655 9.33887 282.823 9.5166C282.992 9.68978 283.076 9.90853 283.076 10.1729C283.076 10.4326 282.992 10.6491 282.823 10.8223C282.655 10.9909 282.415 11.0752 282.105 11.0752C281.809 11.0752 281.575 10.9909 281.401 10.8223C281.228 10.6536 281.142 10.4372 281.142 10.1729C281.142 9.90853 281.226 9.68978 281.395 9.5166C281.563 9.33887 281.8 9.25 282.105 9.25Z" fill="white"/>
</svg>
