<svg width="90" height="24" viewBox="0 0 90 24" fill="none" xmlns="http://www.w3.org/2000/svg">
<path d="M12.2383 12.5811H3.28809V22H0.475586V0.671875H13.6885V2.98633H3.28809V10.2812H12.2383V12.5811ZM17.0576 22V0.671875H24.0303C26.3447 0.671875 28.083 1.15039 29.2451 2.10742C30.417 3.06445 31.0029 4.48047 31.0029 6.35547C31.0029 7.35156 30.7197 8.23535 30.1533 9.00684C29.5869 9.76855 28.8154 10.3594 27.8389 10.7793C28.9912 11.1016 29.8994 11.7168 30.5635 12.625C31.2373 13.5234 31.5742 14.5977 31.5742 15.8477C31.5742 17.7617 30.9541 19.2656 29.7139 20.3594C28.4736 21.4531 26.7207 22 24.4551 22H17.0576ZM19.8701 12.0244V19.7002H24.5137C25.8223 19.7002 26.8525 19.3633 27.6045 18.6895C28.3662 18.0059 28.7471 17.0684 28.7471 15.877C28.7471 13.3086 27.3506 12.0244 24.5576 12.0244H19.8701ZM19.8701 9.76855H24.1182C25.3486 9.76855 26.3301 9.46094 27.0625 8.8457C27.8047 8.23047 28.1758 7.39551 28.1758 6.34082C28.1758 5.16895 27.834 4.31934 27.1504 3.79199C26.4668 3.25488 25.4268 2.98633 24.0303 2.98633H19.8701V9.76855ZM41.4634 23.68L43.5034 21.94C41.6434 19.75 38.9434 17.02 36.7834 15.28L34.8334 16.99C36.9634 18.73 39.5434 21.31 41.4634 23.68ZM68.7666 22H65.9541V0.671875H68.7666V22ZM89.6699 19.2021C88.9473 20.2373 87.9365 21.0137 86.6377 21.5312C85.3486 22.0391 83.8447 22.293 82.126 22.293C80.3877 22.293 78.8447 21.8877 77.4971 21.0771C76.1494 20.2568 75.1045 19.0947 74.3623 17.5908C73.6299 16.0869 73.2539 14.3438 73.2344 12.3613V10.501C73.2344 7.28809 73.9814 4.79785 75.4756 3.03027C76.9795 1.2627 79.0889 0.378906 81.8037 0.378906C84.0303 0.378906 85.8223 0.950195 87.1797 2.09277C88.5371 3.22559 89.3672 4.83691 89.6699 6.92676H86.8574C86.3301 4.10449 84.6504 2.69336 81.8184 2.69336C79.9336 2.69336 78.5029 3.35742 77.5264 4.68555C76.5596 6.00391 76.0713 7.91797 76.0615 10.4277V12.1709C76.0615 14.5635 76.6084 16.4678 77.7021 17.8838C78.7959 19.29 80.2754 19.9932 82.1406 19.9932C83.1953 19.9932 84.1182 19.876 84.9092 19.6416C85.7002 19.4072 86.3545 19.0117 86.8721 18.4551V13.665H81.9355V11.3799H89.6699V19.2021Z" fill="black"/>
</svg>
